<svg width="35" height="35" viewBox="0 0 35 35" fill="none" xmlns="http://www.w3.org/2000/svg">
<path d="M17.582 8.75L17.582 29.1667" stroke="#2A353D" stroke-width="1.5" stroke-linecap="round"/>
<path d="M8.80498 4.79126C13.6776 5.719 16.5816 7.65962 17.5833 8.77375C18.585 7.65962 21.4891 5.719 26.3617 4.79126C28.8301 4.32127 30.0644 4.08627 31.1155 4.98698C32.1667 5.88769 32.1667 7.35032 32.1667 10.2756V20.7885C32.1667 23.4632 32.1667 24.8006 31.492 25.6356C30.8174 26.4705 29.3322 26.7533 26.3617 27.3189C23.7137 27.8231 21.6471 28.6264 20.1512 29.4336C18.6794 30.2279 17.9435 30.625 17.5833 30.625C17.2231 30.625 16.4872 30.2279 15.0155 29.4336C13.5196 28.6264 11.453 27.8231 8.80498 27.3189C5.83449 26.7533 4.34924 26.4705 3.67462 25.6356C3 24.8006 3 23.4632 3 20.7885V10.2756C3 7.35032 3 5.88769 4.05114 4.98698C5.10228 4.08627 6.33652 4.32127 8.80498 4.79126Z" stroke="#2A353D" stroke-width="1.5" stroke-linecap="round" stroke-linejoin="round"/>
</svg>
