<svg width="37" height="37" viewBox="0 0 37 37" fill="none" xmlns="http://www.w3.org/2000/svg">
<path d="M36 18.5C36 28.165 28.165 36 18.5 36C8.83501 36 1 28.165 1 18.5C1 8.83502 8.83501 1 18.5 1C28.165 1 36 8.83502 36 18.5Z" stroke="#2A353D" stroke-width="1.5"/>
<path d="M22.5625 15.2236C22.5625 15.6378 22.8983 15.9736 23.3125 15.9736C23.7267 15.9736 24.0625 15.6378 24.0625 15.2236H22.5625ZM14 21.7771C14 21.3629 13.6642 21.0271 13.25 21.0271C12.8358 21.0271 12.5 21.3629 12.5 21.7771H14ZM19.25 9.75C19.25 9.33579 18.9142 9 18.5 9C18.0858 9 17.75 9.33579 17.75 9.75L19.25 9.75ZM17.75 27.25C17.75 27.6642 18.0858 28 18.5 28C18.9142 28 19.25 27.6642 19.25 27.25H17.75ZM18.5 17.4983C16.7978 17.4983 15.7774 17.2312 15.1985 16.8436C14.6838 16.499 14.4375 16.0044 14.4375 15.2236H12.9375C12.9375 16.3918 13.3475 17.4095 14.364 18.09C15.3163 18.7276 16.7022 18.9983 18.5 18.9983V17.4983ZM14.4375 15.2236C14.4375 14.5455 14.8108 13.8683 15.5405 13.3332C16.2699 12.7984 17.3138 12.4448 18.5 12.4448V10.9448C17.0284 10.9448 15.666 11.3812 14.6536 12.1236C13.6415 12.8656 12.9375 13.9528 12.9375 15.2236H14.4375ZM18.5 12.4448C19.6862 12.4448 20.7301 12.7984 21.4595 13.3332C22.1892 13.8683 22.5625 14.5455 22.5625 15.2236H24.0625C24.0625 13.9528 23.3585 12.8656 22.3464 12.1236C21.334 11.3812 19.9716 10.9448 18.5 10.9448V12.4448ZM23 21.7771C23 22.753 22.5693 23.4002 21.8279 23.8428C21.041 24.3125 19.8821 24.5559 18.5 24.5559V26.0559C20.0173 26.0559 21.4835 25.7953 22.5967 25.1307C23.7555 24.439 24.5 23.3218 24.5 21.7771H23ZM18.5 24.5559C17.1789 24.5559 16.0166 24.1947 15.2061 23.6499C14.3909 23.102 14 22.4257 14 21.7771H12.5C12.5 23.0775 13.2843 24.1656 14.3693 24.8948C15.459 25.6272 16.9216 26.0559 18.5 26.0559V24.5559ZM18.5 18.9983C20.2082 18.9983 21.3404 19.2502 22.0296 19.6969C22.6505 20.0993 23 20.7183 23 21.7771H24.5C24.5 20.3153 23.9745 19.1699 22.8454 18.4381C21.7846 17.7505 20.2918 17.4983 18.5 17.4983V18.9983ZM19.25 11.6948L19.25 9.75L17.75 9.75L17.75 11.6948L19.25 11.6948ZM17.75 25.3059V27.25H19.25V25.3059H17.75Z" fill="#2A353D"/>
</svg>
