<svg width="32" height="36" viewBox="0 0 32 36" fill="none" xmlns="http://www.w3.org/2000/svg">
<path d="M18.6962 33.6103C17.9734 34.2871 17.0073 34.6654 16.0019 34.6654C14.9964 34.6654 14.0303 34.2871 13.3075 33.6103C6.68837 27.3753 -2.18206 20.4102 2.14378 10.2981C4.48272 4.83062 10.0972 1.33203 16.0019 1.33203C21.9065 1.33203 27.521 4.83063 29.8599 10.2981C34.1803 20.3975 25.3317 27.3968 18.6962 33.6103Z" stroke="#2A353D" stroke-width="1.5"/>
<path d="M21.8346 16.3333C21.8346 19.555 19.223 22.1667 16.0013 22.1667C12.7796 22.1667 10.168 19.555 10.168 16.3333C10.168 13.1117 12.7796 10.5 16.0013 10.5C19.223 10.5 21.8346 13.1117 21.8346 16.3333Z" stroke="#2A353D" stroke-width="1.5"/>
</svg>
