<svg width="40" height="36" viewBox="0 0 40 36" fill="none" xmlns="http://www.w3.org/2000/svg">
<path d="M14.0312 21.1992H25.6979M14.0312 13.8893H19.8646" stroke="#2A353D" stroke-width="1.5" stroke-linecap="round" stroke-linejoin="round"/>
<path d="M23.4836 30.543C30.4552 30.1365 36.0085 25.1961 36.4655 18.9938C36.5549 17.78 36.5549 16.5231 36.4655 15.3094C36.0085 9.10709 30.4552 4.16668 23.4836 3.76016C21.1051 3.62147 18.6218 3.62175 16.2482 3.76016C9.27653 4.16668 3.72323 9.10709 3.26629 15.3094C3.17686 16.5231 3.17686 17.78 3.26629 18.9938C3.43271 21.2527 4.57161 23.3443 5.9124 25.1104C6.6909 26.3468 6.17713 27.8899 5.36624 29.2379C4.78157 30.2097 4.48923 30.6957 4.72396 31.0467C4.95868 31.3978 5.48298 31.409 6.53159 31.4314C8.60533 31.4757 10.0037 30.96 11.1137 30.242C11.7432 29.8347 12.058 29.6311 12.2749 29.6077C12.4919 29.5843 12.9188 29.7386 13.7726 30.047C14.5399 30.3242 15.4308 30.4953 16.2482 30.543C18.6218 30.6814 21.1051 30.6817 23.4836 30.543Z" stroke="#2A353D" stroke-width="1.5" stroke-linejoin="round"/>
</svg>
